<mxfile host="app.diagrams.net" agent="Mozilla/5.0 (X11; Linux x86_64; rv:139.0) Gecko/20100101 Firefox/139.0" version="27.1.6">
  <diagram name="Page-1" id="ZWpK3I0Gk64P71YcQH8j">
    <mxGraphModel dx="948" dy="864" grid="1" gridSize="5" guides="1" tooltips="1" connect="1" arrows="1" fold="1" page="1" pageScale="1" pageWidth="850" pageHeight="1100" math="0" shadow="0">
      <root>
        <mxCell id="0" />
        <mxCell id="1" parent="0" />
        <mxCell id="OzP5lUg3DVRN7kOEgWU6-22" value="" style="rounded=0;whiteSpace=wrap;html=1;fillColor=none;" vertex="1" parent="1">
          <mxGeometry x="453" y="80" width="370" height="225" as="geometry" />
        </mxCell>
        <mxCell id="OzP5lUg3DVRN7kOEgWU6-1" value="" style="rounded=0;whiteSpace=wrap;html=1;fillColor=none;" vertex="1" parent="1">
          <mxGeometry x="10" y="80" width="400" height="180" as="geometry" />
        </mxCell>
        <mxCell id="OzP5lUg3DVRN7kOEgWU6-2" value="nvme0n1" style="text;html=1;align=left;verticalAlign=middle;whiteSpace=wrap;rounded=0;fontSize=16;" vertex="1" parent="1">
          <mxGeometry x="10" y="55" width="400" height="25" as="geometry" />
        </mxCell>
        <mxCell id="OzP5lUg3DVRN7kOEgWU6-3" value="&lt;div align=&quot;left&quot;&gt;.&lt;br&gt;├── bin&lt;br&gt;├── boot&lt;br&gt;├── dev&lt;br&gt;├── etc&lt;br&gt;└── ...&lt;/div&gt;" style="rounded=0;whiteSpace=wrap;html=1;align=left;fontSize=14;verticalAlign=top;fillColor=none;" vertex="1" parent="1">
          <mxGeometry x="25" y="120" width="130" height="120" as="geometry" />
        </mxCell>
        <mxCell id="OzP5lUg3DVRN7kOEgWU6-6" value=".&lt;br&gt;├── ...&lt;br&gt;├── efi&lt;br&gt;└── ...&lt;div&gt;&lt;br&gt;&lt;/div&gt;" style="rounded=0;whiteSpace=wrap;html=1;align=left;fontSize=14;verticalAlign=top;fillColor=none;" vertex="1" parent="1">
          <mxGeometry x="171" y="120" width="89" height="80" as="geometry" />
        </mxCell>
        <mxCell id="OzP5lUg3DVRN7kOEgWU6-7" value=".&lt;br&gt;└── EFI&lt;br&gt;&amp;nbsp; &amp;nbsp; ├── debian&lt;br&gt;&amp;nbsp; &amp;nbsp; ├── esl&lt;br&gt;&amp;nbsp; &amp;nbsp; └── pve" style="rounded=0;whiteSpace=wrap;html=1;align=left;fontSize=14;verticalAlign=top;fillColor=none;" vertex="1" parent="1">
          <mxGeometry x="275" y="120" width="115" height="100" as="geometry" />
        </mxCell>
        <mxCell id="OzP5lUg3DVRN7kOEgWU6-9" value="" style="endArrow=classic;html=1;rounded=0;exitX=0.615;exitY=0.415;exitDx=0;exitDy=0;exitPerimeter=0;entryX=0.294;entryY=0.464;entryDx=0;entryDy=0;entryPerimeter=0;fontColor=light-dark(#000000,#FF8000);strokeColor=light-dark(#000000,#FF8000);dashed=1;" edge="1" parent="1">
          <mxGeometry width="50" height="50" relative="1" as="geometry">
            <mxPoint x="104.95000000000005" y="171.79999999999995" as="sourcePoint" />
            <mxPoint x="170.03999999999994" y="171.84000000000003" as="targetPoint" />
          </mxGeometry>
        </mxCell>
        <mxCell id="OzP5lUg3DVRN7kOEgWU6-10" value="" style="endArrow=classic;html=1;rounded=0;entryX=0;entryY=0.5;entryDx=0;entryDy=0;fontColor=light-dark(#000000,#FF8000);strokeColor=light-dark(#000000,#FF8000);dashed=1;" edge="1" parent="1">
          <mxGeometry width="50" height="50" relative="1" as="geometry">
            <mxPoint x="240" y="172" as="sourcePoint" />
            <mxPoint x="275" y="172" as="targetPoint" />
          </mxGeometry>
        </mxCell>
        <mxCell id="OzP5lUg3DVRN7kOEgWU6-11" value="nvme0n1p2 (encrypted)" style="text;html=1;align=left;verticalAlign=middle;whiteSpace=wrap;rounded=0;" vertex="1" parent="1">
          <mxGeometry x="25" y="100" width="130" height="20" as="geometry" />
        </mxCell>
        <mxCell id="OzP5lUg3DVRN7kOEgWU6-12" value="nvme0n1p3" style="text;html=1;align=center;verticalAlign=middle;whiteSpace=wrap;rounded=0;" vertex="1" parent="1">
          <mxGeometry x="170" y="100" width="90" height="20" as="geometry" />
        </mxCell>
        <mxCell id="OzP5lUg3DVRN7kOEgWU6-13" value="nvme0n1p1" style="text;html=1;align=left;verticalAlign=middle;whiteSpace=wrap;rounded=0;" vertex="1" parent="1">
          <mxGeometry x="275" y="100" width="115" height="20" as="geometry" />
        </mxCell>
        <mxCell id="OzP5lUg3DVRN7kOEgWU6-14" value="&lt;div align=&quot;left&quot;&gt;.&lt;br&gt;├── bin&lt;br&gt;├── boot&lt;br&gt;│&amp;nbsp; &amp;nbsp;├── ...&lt;br&gt;│&amp;nbsp; &amp;nbsp;├── efi&lt;br&gt;│&amp;nbsp; &amp;nbsp;└── ...&lt;br&gt;├── dev&lt;br&gt;├── etc&lt;br&gt;└── ...&lt;/div&gt;" style="rounded=0;whiteSpace=wrap;html=1;align=left;fontSize=14;verticalAlign=top;fillColor=none;" vertex="1" parent="1">
          <mxGeometry x="473" y="120" width="195" height="165" as="geometry" />
        </mxCell>
        <mxCell id="OzP5lUg3DVRN7kOEgWU6-16" value=".&lt;br&gt;└── EFI&lt;br&gt;&amp;nbsp; &amp;nbsp; ├── debian&lt;br&gt;&amp;nbsp; &amp;nbsp; ├── esl&lt;br&gt;&amp;nbsp; &amp;nbsp; └── pve" style="rounded=0;whiteSpace=wrap;html=1;align=left;fontSize=14;verticalAlign=top;fillColor=none;" vertex="1" parent="1">
          <mxGeometry x="683" y="120" width="120" height="100" as="geometry" />
        </mxCell>
        <mxCell id="OzP5lUg3DVRN7kOEgWU6-18" value="" style="endArrow=classic;html=1;rounded=0;entryX=0;entryY=0.852;entryDx=0;entryDy=0;fontColor=light-dark(#000000,#FF8000);strokeColor=light-dark(#000000,#FF8000);dashed=1;entryPerimeter=0;" edge="1" parent="1" target="OzP5lUg3DVRN7kOEgWU6-16">
          <mxGeometry width="50" height="50" relative="1" as="geometry">
            <mxPoint x="568" y="205" as="sourcePoint" />
            <mxPoint x="638" y="205.24" as="targetPoint" />
          </mxGeometry>
        </mxCell>
        <mxCell id="OzP5lUg3DVRN7kOEgWU6-19" value="nvme0n1p2 (encrypted)" style="text;html=1;align=left;verticalAlign=middle;whiteSpace=wrap;rounded=0;" vertex="1" parent="1">
          <mxGeometry x="473" y="100" width="195" height="20" as="geometry" />
        </mxCell>
        <mxCell id="OzP5lUg3DVRN7kOEgWU6-21" value="&lt;div&gt;nvme0n1p1&lt;/div&gt;" style="text;html=1;align=left;verticalAlign=middle;whiteSpace=wrap;rounded=0;" vertex="1" parent="1">
          <mxGeometry x="683" y="100" width="120" height="20" as="geometry" />
        </mxCell>
        <mxCell id="OzP5lUg3DVRN7kOEgWU6-23" value="nvme0n1" style="text;html=1;align=left;verticalAlign=middle;whiteSpace=wrap;rounded=0;fontSize=16;" vertex="1" parent="1">
          <mxGeometry x="453" y="55" width="367" height="25" as="geometry" />
        </mxCell>
        <mxCell id="OzP5lUg3DVRN7kOEgWU6-24" value="Current Layout" style="text;html=1;align=center;verticalAlign=middle;whiteSpace=wrap;rounded=0;fontSize=18;" vertex="1" parent="1">
          <mxGeometry x="10" y="15" width="405" height="25" as="geometry" />
        </mxCell>
        <mxCell id="OzP5lUg3DVRN7kOEgWU6-25" value="Planned Layout" style="text;html=1;align=center;verticalAlign=middle;whiteSpace=wrap;rounded=0;fontSize=18;" vertex="1" parent="1">
          <mxGeometry x="453" y="20" width="370" height="20" as="geometry" />
        </mxCell>
      </root>
    </mxGraphModel>
  </diagram>
</mxfile>
